<?xml version="1.0" encoding="UTF-8"?>
<svg version="1.1" xmlns="http://www.w3.org/2000/svg" width="425" height="425">
<path d="M0 0 C-1 2 -1 2 -2.72729492 2.66674805 C-3.84261597 2.96125854 -3.84261597 2.96125854 -4.98046875 3.26171875 C-6.22219849 3.60384399 -6.22219849 3.60384399 -7.48901367 3.95288086 C-8.37951416 4.19530518 -9.27001465 4.43772949 -10.1875 4.6875 C-27.29487977 9.59728907 -43.34594902 17.32955198 -52.84765625 33.05859375 C-62.27233595 50.68734708 -65.18503071 70.65760139 -60.3125 90.1875 C-58.36985364 96.38223246 -56.00300192 102.24634926 -53 108 C-52.26330078 109.44632813 -52.26330078 109.44632813 -51.51171875 110.921875 C-41.9974714 128.45170544 -25.39673354 142.56571181 -9.625 154.4375 C36.49201194 189.20074031 36.49201194 189.20074031 41 217 C41.67387509 227.38026823 41.02643981 237.69015931 36 247 C34.78467134 243.35401402 35.22022446 240.94258895 35.625 237.125 C36.76423522 223.07612752 32.28750406 209.36218449 23.19140625 198.5078125 C20.26322754 195.19930169 17.17226554 192.07336997 14 189 C13.25878906 188.27296875 12.51757812 187.5459375 11.75390625 186.796875 C7.15951021 182.52382613 2.16157044 178.79209331 -2.875 175.0625 C-3.53024658 174.57700684 -4.18549316 174.09151367 -4.8605957 173.59130859 C-7.55024326 171.63488402 -9.82514738 170.05828421 -13 169 C-12.11699219 169.72703125 -11.23398438 170.4540625 -10.32421875 171.203125 C4.50958955 183.56567027 21.65239065 198.92700743 24.28662109 219.20654297 C25.63520215 235.56955289 21.61781873 248.28933816 11 261 C10.29746094 261.85335938 9.59492188 262.70671875 8.87109375 263.5859375 C2.78258146 270.66560296 -4.35707659 278.13183847 -13 282 C-12.0159277 277.84502808 -10.33979321 274.97961341 -7.8125 271.625 C-4.64278669 267.2484084 -2.34060668 262.80374327 -0.1875 257.875 C0.10213623 257.21838379 0.39177246 256.56176758 0.69018555 255.88525391 C6.56202858 242.03966583 6.73379039 228.34542187 1.4765625 214.3359375 C-5.74165504 198.02811268 -21.06667505 185.28241774 -34.75 174.3125 C-67.09068225 148.27872499 -85.15164142 109.05437948 -90.3125 68.4375 C-92.00456271 52.74196408 -93.54699779 35.35693988 -84.375 21.625 C-72.13483361 7.12604979 -51.42049239 3.30230387 -33.5 1.3125 C-32.38447754 1.18512451 -31.26895508 1.05774902 -30.11962891 0.92651367 C-20.05547658 -0.1433317 -10.1072603 -0.30800906 0 0 Z " fill="#F4F4F4" transform="translate(138,78)"/>
<path d="M0 0 C6.97980559 0.62492585 13.57859528 2.3120395 20.35980225 4.03747559 C52.23626719 12.0925078 84.26580719 17.92678774 117 21 C117.97267822 21.09804932 118.94535645 21.19609863 119.94750977 21.29711914 C127.01960963 21.99098795 134.08729064 22.30877254 141.1875 22.5625 C142.33025391 22.60568359 143.47300781 22.64886719 144.65039062 22.69335938 C147.43350811 22.79816296 150.21669465 22.90033299 153 23 C153 23.66 153 24.32 153 25 C149.48028532 25.48761328 145.95905847 25.96340165 142.4375 26.4375 C141.46619141 26.57220703 140.49488281 26.70691406 139.49414062 26.84570312 C123.83172597 28.93742626 108.33158788 29.13203671 92.5625 29.0625 C90.55924592 29.05747118 88.55599061 29.05291074 86.55273438 29.04882812 C81.70179181 29.03794072 76.85090997 29.02075358 72 29 C72.30397705 30.26457031 72.6079541 31.52914062 72.92114258 32.83203125 C73.09212967 33.54335205 73.26311676 34.25467285 73.43928528 34.98754883 C76.69917704 46.68756802 86.9790355 55.98153527 97 62 C116.38794406 72.63023976 139.96856643 72.73395982 160.88964844 66.63720703 C161.93427246 66.32178955 161.93427246 66.32178955 163 66 C163.70672852 65.79101074 164.41345703 65.58202148 165.14160156 65.36669922 C190.45072406 57.68418932 210.76611419 42.93968913 228 23 C228 33.00793156 217.1881691 42.78899009 210.53320312 49.47900391 C202.89507389 57.05632002 195.09812687 63.31565547 186 69 C199.90069082 64.52237363 212.1321885 55.52840883 223 46 C223.81597656 45.31679687 224.63195312 44.63359375 225.47265625 43.9296875 C236.30314702 34.62679368 244.88606116 23.8097352 252.34741211 11.68554688 C254.60749458 8.0265714 256.75894875 4.89593931 260 2 C253.31394216 32.05542189 233.35048974 56.37225942 208 73 C207.13761719 73.57363281 206.27523437 74.14726562 205.38671875 74.73828125 C194.53375438 81.61241744 182.45748765 86.05264488 170 89 C169.3620752 89.15098145 168.72415039 89.30196289 168.06689453 89.45751953 C148.19805285 93.95310563 126.50178417 94.12855236 107 88 C105.87078125 87.649375 104.7415625 87.29875 103.578125 86.9375 C89.1300343 81.86304863 77.09559559 74.17026938 66.35742188 63.35009766 C65.18301805 62.18203055 63.96239153 61.06078544 62.734375 59.94921875 C53.19711128 51.18169481 45.81927897 38.46908249 42.45483398 25.97558594 C41.21998831 21.8370821 40.67855996 20.38071563 36.76953125 18.1875 C35.459161 17.7639409 34.13913467 17.36947662 32.8125 17 C31.36854689 16.52988729 29.92718678 16.05174883 28.48828125 15.56640625 C27.74787598 15.31906738 27.0074707 15.07172852 26.24462891 14.81689453 C17.09973096 11.48876439 8.00313608 6.50215605 0 1 C0 0.67 0 0.34 0 0 Z " fill="#F1F1F1" transform="translate(117,210)"/>
<path d="M0 0 C0.76454687 -0.00407553 1.52909374 -0.00815105 2.3168087 -0.01235008 C6.38022953 -0.03307088 10.44361821 -0.04742052 14.50708008 -0.05688477 C17.78885019 -0.06564644 21.07018323 -0.0863042 24.35180664 -0.1184082 C98.3728494 -0.82590158 98.3728494 -0.82590158 121.66796875 15.23828125 C123.78870852 17.64522705 124.60301603 18.96666078 125.35546875 22.11328125 C124.43621035 26.29172851 122.79065152 27.46826819 119.30078125 29.796875 C91.73761261 44.88709641 54.31248642 43.76689841 23.87121582 43.56085205 C21.17290724 43.54737113 18.47476214 43.55270646 15.7764349 43.55771446 C-0.68539879 43.58079042 -16.95974394 42.98791576 -33.33203125 41.23828125 C-34.05208344 41.16276031 -34.77213562 41.08723938 -35.51400757 41.00942993 C-56.47333102 38.76593198 -77.16280494 34.92384341 -97.14453125 28.11328125 C-97.82612305 27.88398926 -98.50771484 27.65469727 -99.20996094 27.41845703 C-103.10111704 26.00321724 -105.64416541 24.39330765 -108.33203125 21.23828125 C-76.37216102 3.35345321 -35.94612764 0.1657863 0 0 Z M-48.14453125 15.30078125 C-48.93279297 15.46296143 -49.72105469 15.6251416 -50.53320312 15.79223633 C-53.98034696 16.54850531 -56.36348262 17.25924883 -59.33203125 19.23828125 C-59.33203125 20.22828125 -59.33203125 21.21828125 -59.33203125 22.23828125 C-18.6438055 38.0639779 46.20185146 38.93096971 87.66796875 25.23828125 C88.65796875 24.57828125 89.64796875 23.91828125 90.66796875 23.23828125 C90.33796875 21.58828125 90.00796875 19.93828125 89.66796875 18.23828125 C82.50344717 15.78365386 75.43231907 13.85600181 67.98046875 12.55078125 C67.30508057 12.43178467 66.62969238 12.31278809 65.93383789 12.19018555 C28.99437946 6.02100688 -11.56463713 7.73436211 -48.14453125 15.30078125 Z " fill="#ECECEC" transform="translate(254.33203125,176.76171875)"/>
<path d="M0 0 C0.87604889 -0.00785522 1.75209778 -0.01571045 2.6546936 -0.02380371 C5.17641835 -0.04141521 7.69701624 -0.03645188 10.21875 -0.0234375 C11.35971382 -0.03233505 11.35971382 -0.03233505 12.52372742 -0.04141235 C17.00880395 0.0171532 19.95293674 0.56423133 23.5 3.375 C24.5625 5.75 24.5625 5.75 24.5 8.375 C14.42534922 23.49917309 -16.4461864 32.41305736 -33.2824707 35.96142578 C-34.01425537 36.09790527 -34.74604004 36.23438477 -35.5 36.375 C-35.5 35.715 -35.5 35.055 -35.5 34.375 C-34.39785156 33.91351563 -33.29570312 33.45203125 -32.16015625 32.9765625 C-23.84914296 29.43038256 -15.77038688 25.64121347 -7.9375 21.125 C-7.2060376 20.71330566 -6.4745752 20.30161133 -5.72094727 19.87744141 C-1.91291743 17.80557934 -1.91291743 17.80557934 0.19897461 14.23144531 C0.34798218 13.31250488 0.34798218 13.31250488 0.5 12.375 C-47.38317368 18.38856328 -94.77243672 34.20338951 -141.15234375 47.171875 C-142.12554062 47.44388229 -143.09873749 47.71588959 -144.10142517 47.99613953 C-150.95898132 49.92182069 -157.79402697 51.91978488 -164.625 53.9375 C-176.18590341 57.33592995 -187.82168521 60.40764039 -199.5 63.375 C-199.5 62.715 -199.5 62.055 -199.5 61.375 C-160.78382227 34.10774911 -107.26171102 17.59681303 -61.5 7.375 C-60.11119629 7.0644165 -60.11119629 7.0644165 -58.69433594 6.74755859 C-53.7575069 5.66357486 -48.81151093 4.6805041 -43.83496094 3.796875 C-42.30164625 3.51983947 -40.77081753 3.22859556 -39.24316406 2.921875 C-26.21395134 0.31715518 -13.24104005 0.05975512 0 0 Z " fill="#EDEDED" transform="translate(345.5,124.625)"/>
<path d="M0 0 C5.75597876 6.30416721 7.31064439 13.14439526 7.125 21.5 C7.11218994 22.40532471 7.09937988 23.31064941 7.08618164 24.2434082 C6.145733 56.77958235 -5.61658919 89.96931113 -18.375 119.5625 C-18.6534375 120.20977051 -18.931875 120.85704102 -19.21875 121.52392578 C-21.11679957 125.74589978 -21.11679957 125.74589978 -23.375 126.875 C-22.12384542 117.51647338 -20.576964 108.2481075 -18.83065796 98.97024536 C-9.94157924 60.40689095 -9.94157924 60.40689095 -14.44921875 22.17578125 C-17.76284991 18.21689939 -21.93689388 17.15890855 -26.88671875 16.58251953 C-29.7242685 16.43287503 -32.53365067 16.40821014 -35.375 16.4375 C-36.42099365 16.44507324 -37.4669873 16.45264648 -38.54467773 16.46044922 C-64.27190493 16.98773325 -89.58178971 24.34820635 -113.56347656 33.21411133 C-115.15742068 33.79562167 -116.76536312 34.33845437 -118.375 34.875 C-118.375 34.215 -118.375 33.555 -118.375 32.875 C-94.34500524 9.09349618 -32.50796249 -20.46797638 0 0 Z " fill="#F1F1F1" transform="translate(165.375,48.125)"/>
<path d="M0 0 C0.99 0.495 0.99 0.495 2 1 C1.72285156 1.60585938 1.44570313 2.21171875 1.16015625 2.8359375 C-3.4342815 13.46364049 -3.9942984 22.0252504 0 33 C2.90501963 39.57122184 6.34187181 45.88392766 9.71484375 52.22265625 C11.62588251 56.35259107 11.64658054 58.47393622 11 63 C5.53978941 70.22674931 -4.3955761 70.32568963 -12.78759766 71.5546875 C-27.79769368 73.46433161 -42.87581013 73.35375174 -57.9787674 73.3172493 C-60.20734726 73.31245732 -62.43590512 73.31140977 -64.66448975 73.31100464 C-91.26072662 73.29360657 -117.56742289 72.05905106 -144 69 C-144 68.34 -144 67.68 -144 67 C-143.33097656 66.9906543 -142.66195312 66.98130859 -141.97265625 66.97167969 C-81.57934854 67.97319518 -81.57934854 67.97319518 -27 49 C-24.08052232 44.3482989 -23.74177446 38.39799765 -23.0625 33.0625 C-21.69768486 22.82638645 -18.44124256 14.37334801 -11 7 C-7.50782838 4.34228375 -3.97189826 1.88385224 0 0 Z " fill="#F3F3F3" transform="translate(305,295)"/>
<path d="M0 0 C0.66 0.33 1.32 0.66 2 1 C1.505 1.4125 1.01 1.825 0.5 2.25 C-1.43386092 4.12202338 -1.43386092 4.12202338 -1 8 C-4.47564634 9.3012762 -7.95609573 10.58921619 -11.4375 11.875 C-12.89833008 12.42220703 -12.89833008 12.42220703 -14.38867188 12.98046875 C-20.22101415 15.12614651 -25.90072604 16.80159043 -32 18 C-32 17.34 -32 16.68 -32 16 C-30.86304688 15.5153125 -29.72609375 15.030625 -28.5546875 14.53125 C-19.54985409 10.63861712 -10.99544841 6.4960558 -2.625 1.37109375 C-1.325625 0.69240234 -1.325625 0.69240234 0 0 Z " fill="#D0D0D0" transform="translate(342,143)"/>
<path d="M0 0 C0.66 0.33 1.32 0.66 2 1 C1.34 1.66 0.68 2.32 0 3 C0.33 3.66 0.66 4.32 1 5 C-1.39460588 5.81627446 -3.79056526 6.62811645 -6.1875 7.4375 C-6.86103516 7.66759766 -7.53457031 7.89769531 -8.22851562 8.13476562 C-11.79514491 9.33524085 -15.2871161 10.37277495 -19 11 C-19 10.34 -19 9.68 -19 9 C-18.45996338 8.76289307 -17.91992676 8.52578613 -17.36352539 8.28149414 C-14.92878456 7.21090074 -12.49562968 6.13674971 -10.0625 5.0625 C-8.78729492 4.50272461 -8.78729492 4.50272461 -7.48632812 3.93164062 C-6.67744141 3.57392578 -5.86855469 3.21621094 -5.03515625 2.84765625 C-4.2862915 2.51773682 -3.53742676 2.18781738 -2.76586914 1.84790039 C-1.01837904 1.12883338 -1.01837904 1.12883338 0 0 Z " fill="#ACACAC" transform="translate(329,150)"/>
<path d="M0 0 C6.93 0 13.86 0 21 0 C16.5 3.375 16.5 3.375 12.890625 3.07421875 C11.75947266 2.99204102 11.75947266 2.99204102 10.60546875 2.90820312 C9.82816406 2.83537109 9.05085937 2.76253906 8.25 2.6875 C7.45722656 2.62626953 6.66445312 2.56503906 5.84765625 2.50195312 C3.89724131 2.34920979 1.94840445 2.17654756 0 2 C0 1.34 0 0.68 0 0 Z " fill="#959595" transform="translate(161,362)"/>
<path d="M0 0 C0.66 0.33 1.32 0.66 2 1 C1.55269531 1.43570313 1.10539062 1.87140625 0.64453125 2.3203125 C-3.14521536 6.05349573 -6.66459583 9.856013 -10 14 C-10 9.63089242 -7.74725787 7.26700936 -5 4 C-2.1875 1.5625 -2.1875 1.5625 0 0 Z " fill="#BFBFC0" transform="translate(62,92)"/>
<path d="M0 0 C1 2 1 2 0.44140625 4.1640625 C0.15136719 4.97617188 -0.13867188 5.78828125 -0.4375 6.625 C-0.72496094 7.44226563 -1.01242187 8.25953125 -1.30859375 9.1015625 C-1.65083984 10.04128906 -1.65083984 10.04128906 -2 11 C-2.99 11 -3.98 11 -5 11 C-5.99 11.495 -5.99 11.495 -7 12 C-5.44298069 7.32894208 -2.91552627 3.91294315 0 0 Z " fill="#B7B7B7" transform="translate(376,212)"/>
<path d="M0 0 C0.33 1.32 0.66 2.64 1 4 C1.66 4 2.32 4 3 4 C2.55090939 5.48199902 2.09043436 6.96055236 1.625 8.4375 C1.24214844 9.67306641 1.24214844 9.67306641 0.8515625 10.93359375 C0 13 0 13 -2 14 C-1.34 9.38 -0.68 4.76 0 0 Z " fill="#A3A3A3" transform="translate(144,161)"/>
<path d="M0 0 C1.051875 0.433125 1.051875 0.433125 2.125 0.875 C5.05452503 2.02133588 8.00921653 3.02625654 11 4 C10.67 4.99 10.34 5.98 10 7 C10.66 7.33 11.32 7.66 12 8 C11.01 8 10.02 8 9 8 C9 7.34 9 6.68 9 6 C8.443125 5.938125 7.88625 5.87625 7.3125 5.8125 C4.05012827 4.66626128 2.31332126 2.50609803 0 0 Z " fill="#767576" transform="translate(112,237)"/>
<path d="M0 0 C0.66 0.33 1.32 0.66 2 1 C1.34 1.66 0.68 2.32 0 3 C0.33 3.66 0.66 4.32 1 5 C-1.31 5.33 -3.62 5.66 -6 6 C-6 5.01 -6 4.02 -6 3 C-4.03533587 1.93224776 -2.03144641 0.93446535 0 0 Z " fill="#BABABA" transform="translate(329,150)"/>
<path d="M0 0 C0.66 0.33 1.32 0.66 2 1 C1.67 2.65 1.34 4.3 1 6 C-2 6 -2 6 -3.6875 4.5 C-4.120625 4.005 -4.55375 3.51 -5 3 C-2.625 1.4375 -2.625 1.4375 0 0 Z " fill="#B1B1B1" transform="translate(151,195)"/>
<path d="M0 0 C3.3 0 6.6 0 10 0 C8 4 8 4 6 5 C6 3.68 6 2.36 6 1 C4.02 1 2.04 1 0 1 C0 0.67 0 0.34 0 0 Z " fill="#363636" transform="translate(340,136)"/>
<path d="M0 0 C0.33 0.66 0.66 1.32 1 2 C-5.93 1.505 -5.93 1.505 -13 1 C-13 0.67 -13 0.34 -13 0 C-11.39679026 -0.19551338 -9.79237014 -0.38111983 -8.1875 -0.5625 C-7.29417969 -0.66691406 -6.40085937 -0.77132812 -5.48046875 -0.87890625 C-3 -1 -3 -1 0 0 Z " fill="#989898" transform="translate(317,187)"/>
<path d="M0 0 C0.66 0.33 1.32 0.66 2 1 C2 1.99 2 2.98 2 4 C-0.64 4.99 -3.28 5.98 -6 7 C-6 6.34 -6 5.68 -6 5 C-4.04072937 3.2856382 -2.04119788 1.61594832 0 0 Z " fill="#ACACAF" transform="translate(53,76)"/>
</svg>
